<?xml version="1.0" encoding="utf-8"?>
<svg xmlns="http://www.w3.org/2000/svg" xmlns:svg="http://www.w3.org/2000/svg" version="1.1" viewBox="0 0 1400 420">
	<title>The titlepage for the Standard Ebooks edition of Vanity Fair, by William Makepeace Thackeray</title>
	<g aria-label="VANITY FAIR">
		<path d="m 400.38669,130 h 13.84795 L 446.60891,52.807016 H 426.77266 L 407.31067,103.52047 387.84868,52.807016 h -19.83626 z"/>
		<path d="M 485.144,52.807016 H 468.8633 L 437.70541,130 h 18.90058 l 5.7076,-15.4386 h 29.38012 L 497.40131,130 h 18.90059 z m 0.56141,46.31579 H 468.3019 l 8.60819,-22.45614 h 0.18713 z"/>
		<path d="m 541.81214,82.093566 h 0.18714 L 572.68934,130 h 17.59064 V 52.807016 H 572.68934 V 100.71345 H 572.5022 L 541.81214,52.807016 H 524.2215 V 130 h 17.59064 z"/>
		<path d="M 624.11477,52.807016 H 606.52413 V 130 h 17.59064 z"/>
		<path d="m 630.96419,68.245613 h 18.33918 V 130 h 17.59064 V 68.245613 h 18.33918 V 52.807016 h -54.269 z"/>
		<path d="m 688.14694,52.807016 28.44445,42.5731 V 130 h 17.59064 V 95.380116 l 28.44445,-42.5731 h -21.1462 L 725.38671,77.508771 709.29314,52.807016 Z"/>
		<path d="M 845.68056,52.807016 H 801.04898 V 130 h 17.59065 V 99.029239 h 24.98245 V 83.590642 H 818.63963 V 68.245613 h 27.04093 z"/>
		<path d="m 894.96127,52.807016 h -16.2807 L 847.52268,130 h 18.90058 l 5.7076,-15.4386 h 29.38012 L 907.21858,130 h 18.90059 z m 0.56141,46.31579 h -17.40351 l 8.60818,-22.45614 h 0.18714 z"/>
		<path d="M 951.6294,52.807016 H 934.03876 V 130 h 17.59064 z"/>
		<path d="M 967.91303,52.807016 V 130 h 17.59064 V 99.497075 L 1009.0826,130 h 22.3626 l -26.5731,-31.906433 c 9.4503,-2.994152 15.8129,-10.760234 15.8129,-22.362574 0,-15.157895 -10.8538,-22.923977 -25.16963,-22.923977 z m 17.59064,34.245615 V 66.842104 h 2.05848 c 6.64327,0 14.59645,0.467836 14.59645,10.105263 0,9.637428 -7.95318,10.105264 -14.59645,10.105264 z"/>
	</g>
	<g aria-label="WILLIAM MAKEPEACE">
		<path d="m 312.04441,290 h 14.59649 l 16.49123,-57.89474 h -14.59649 l -9.89474,39.7193 h -0.35087 l -10.52632,-39.7193 h -9.96491 l -10.52632,39.7193 h -0.35088 l -9.89473,-39.7193 H 262.3602 L 278.85143,290 h 14.66667 l 9.26315,-32.49123 z"/>
		<path d="M 364.48959,232.10526 H 351.29661 V 290 h 13.19298 z"/>
		<path d="M 391.14529,232.10526 H 377.95231 V 290 h 33.1228 v -11.57895 h -19.92982 z"/>
		<path d="M 435.75604,232.10526 H 422.56306 V 290 h 33.1228 v -11.57895 h -19.92982 z"/>
		<path d="M 480.36679,232.10526 H 467.1738 V 290 h 13.19299 z"/>
		<path d="M 523.23301,232.10526 H 511.02249 L 487.65407,290 h 14.17544 l 4.2807,-11.57895 h 22.03508 L 532.426,290 h 14.17543 z m 0.42106,34.73685 H 510.60143 L 517.05758,250 h 0.14035 z"/>
		<path d="m 601.65076,290 h 13.19299 l -5.19299,-57.89474 h -14.03508 l -12.84211,33.40351 -12.84211,-33.40351 H 555.89638 L 550.70339,290 h 13.19299 l 2.73684,-34.31579 h 0.35088 l 11.85965,33.96491 h 7.85964 l 11.85965,-33.96491 h 0.35088 z"/>
		<path d="m 697.17707,290 h 13.19298 l -5.19298,-57.89474 h -14.03509 l -12.8421,33.40351 -12.84211,-33.40351 H 651.42268 L 646.2297,290 h 13.19298 l 2.73685,-34.31579 h 0.35087 l 11.85965,33.96491 h 7.85965 l 11.85965,-33.96491 h 0.35088 z"/>
		<path d="M 750.05867,232.10526 H 737.84814 L 714.47972,290 h 14.17544 l 4.2807,-11.57895 h 22.03509 L 759.25165,290 h 14.17544 z m 0.42105,34.73685 H 737.42709 L 743.88323,250 h 0.14035 z"/>
		<path d="m 833.31852,290 -26.94737,-30.45614 23.29825,-27.4386 h -16 l -19.85965,23.64913 V 232.10526 H 780.61677 V 290 h 13.19298 V 265.4386 L 815.14308,290 Z"/>
		<path d="m 873.97535,232.10526 h -33.1228 V 290 h 33.1228 v -11.57895 h -19.92982 v -11.64912 h 19.08772 v -11.57895 h -19.08772 v -11.50877 h 19.92982 z"/>
		<path d="M 886.55976,232.10526 V 290 h 13.19298 v -21.47368 h 7.92983 c 11.29824,0 19.78947,-6.66667 19.78947,-18.5965 0,-11.99999 -8.49123,-17.82456 -19.78947,-17.82456 z M 899.75274,258 v -15.36842 h 3.7193 c 5.19298,0 10.10526,1.75439 10.10526,7.7193 0,5.89473 -4.91228,7.64912 -10.10526,7.64912 z"/>
		<path d="m 971.42048,232.10526 h -33.1228 V 290 h 33.1228 v -11.57895 h -19.92982 v -11.64912 h 19.08772 v -11.57895 h -19.08772 v -11.50877 h 19.92982 z"/>
		<path d="m 1013.8196,232.10526 h -12.2105 L 978.24065,290 h 14.17543 l 4.28071,-11.57895 h 22.03511 L 1023.0126,290 h 14.1754 z m 0.421,34.73685 H 1001.188 L 1007.6442,250 h 0.1403 z"/>
		<path d="m 1072.9918,278.07018 c -13.2632,0 -19.0877,-9.26316 -19.0877,-17.05264 0,-7.71929 5.8245,-16.98245 19.0877,-16.98245 6.7368,0 11.3684,3.57895 11.3684,3.57895 l 5.614,-11.22807 c 0,0 -6.4561,-5.33334 -19.0175,-5.33334 -16.4211,0 -31.3684,13.47369 -31.3684,30.10527 0,16.5614 15.0175,29.89473 31.3684,29.89473 12.5614,0 19.0175,-5.33333 19.0175,-5.33333 l -5.614,-11.22807 c 0,0 -4.6316,3.57895 -11.3684,3.57895 z"/>
		<path d="m 1133.2133,232.10526 h -33.1228 V 290 h 33.1228 v -11.57895 h -19.9299 v -11.64912 h 19.0878 v -11.57895 h -19.0878 v -11.50877 h 19.9299 z"/>
	</g>
	<g aria-label="THACKERAY">
		<path d="m 456.80866,323.68421 h 13.75439 V 370 h 13.19298 v -46.31579 h 13.75439 v -11.57895 h -40.70176 z"/>
		<path d="m 520.4545,346.77193 h 18.66666 V 370 h 13.19298 v -57.89474 h -13.19298 v 23.08772 H 520.4545 V 312.10526 H 507.26151 V 370 h 13.19299 z"/>
		<path d="M 595.11897,312.10526 H 582.90844 L 559.54002,370 h 14.17544 l 4.2807,-11.57895 h 22.03509 L 604.31195,370 h 14.17544 z m 0.42105,34.73685 H 582.48739 L 588.94353,330 h 0.14035 z"/>
		<path d="m 654.29111,358.07018 c -13.26316,0 -19.08772,-9.26316 -19.08772,-17.05264 0,-7.71929 5.82456,-16.98245 19.08772,-16.98245 6.73684,0 11.36842,3.57895 11.36842,3.57895 l 5.61404,-11.22807 c 0,0 -6.45614,-5.33334 -19.01755,-5.33334 -16.42105,0 -31.36842,13.47369 -31.36842,30.10527 0,16.5614 15.01755,29.89473 31.36842,29.89473 12.56141,0 19.01755,-5.33333 19.01755,-5.33333 l -5.61404,-11.22807 c 0,0 -4.63158,3.57895 -11.36842,3.57895 z"/>
		<path d="m 734.09155,370 -26.94737,-30.45614 23.29825,-27.4386 h -16 l -19.85965,23.64913 V 312.10526 H 681.38979 V 370 h 13.19299 V 345.4386 L 715.91611,370 Z"/>
		<path d="M 774.74835,312.10526 H 741.62554 V 370 h 33.12281 v -11.57895 h -19.92983 v -11.64912 h 19.08772 v -11.57895 h -19.08772 v -11.50877 h 19.92983 z"/>
		<path d="M 787.33279,312.10526 V 370 h 13.19298 V 347.12281 L 818.20998,370 h 16.77193 l -19.92982,-23.92982 c 7.08771,-2.24562 11.85964,-8.07018 11.85964,-16.77193 0,-11.36842 -8.14035,-17.19299 -18.87719,-17.19299 z m 13.19298,25.68421 v -15.15789 h 1.54386 c 4.98246,0 10.94737,0.35088 10.94737,7.57895 0,7.22807 -5.96491,7.57894 -10.94737,7.57894 z"/>
		<path d="M 872.03781,312.10526 H 859.82728 L 836.45886,370 h 14.17544 l 4.2807,-11.57895 h 22.03509 L 881.23079,370 h 14.17544 z m 0.42105,34.73685 H 859.40623 L 865.86237,330 h 0.14035 z"/>
		<path d="m 889.97531,312.10526 21.33333,31.92983 V 370 h 13.19299 v -25.96491 l 21.33333,-31.92983 h -15.85965 l -12.07017,18.52632 -12.07018,-18.52632 z"/>
	</g>
</svg>
